<svg xmlns="http://www.w3.org/2000/svg" width="20" height="20" viewBox="0 0 20 20">
  <g id="Group_7868" data-name="Group 7868" transform="translate(-912 -295)">
    <g id="Layer_2" data-name="Layer 2" transform="translate(915.53 298.024)">
      <g id="Layer_1" data-name="Layer 1" transform="translate(-1.02 -1.1)">
        <path id="Path_6310" data-name="Path 6310" d="M7.493,0a4.459,4.459,0,1,0,4.445,4.459A4.459,4.459,0,0,0,7.493,0ZM6,15.766a.534.534,0,0,1,0-.105L4.916,14.593a2.809,2.809,0,0,0-.26,1.173,2.324,2.324,0,0,0,0,.386h1.39A1.706,1.706,0,0,1,6,15.766Zm4.01-1.257L8.968,15.548v.218a1.4,1.4,0,0,1-.049.386h1.348a3.462,3.462,0,0,0,0-.386,2.76,2.76,0,0,0-.26-1.257Zm-2.514.941a.309.309,0,0,0,0,.611.309.309,0,0,0,0-.611ZM5.85,13.483l.962.955a1.531,1.531,0,0,1,1.278,0l.969-.969a2.872,2.872,0,0,0-3.209.014Zm9.129,2.669a7.332,7.332,0,0,0-4.445-6.383,6.236,6.236,0,0,1-6.131,0A7.325,7.325,0,0,0,0,16.152H3.02a3.462,3.462,0,0,1,0-.386,4.551,4.551,0,0,1,4.494-4.487A4.551,4.551,0,0,1,12,15.766v.386Z" transform="translate(0 0)" fill="#363545" fill-rule="evenodd"/>
      </g>
    </g>
    <rect id="Rectangle_3478" data-name="Rectangle 3478" width="20" height="20" transform="translate(912 295)" fill="none"/>
  </g>
</svg>
