<svg data-name="local_gas_station_black_24dp (1)" xmlns="http://www.w3.org/2000/svg" width="20" height="20" viewBox="0 0 20 20">
    <path data-name="Path 6315" d="M0 0h20v20H0z" style="fill:none"/>
    <path data-name="Path 6316" d="m15.947 6.29.008-.008-2.819-2.893-.8.824 1.6 1.641a1.95 1.95 0 0 0 .674 3.757 1.894 1.894 0 0 0 .758-.163v5.608a.758.758 0 1 1-1.515 0v-3.5A1.54 1.54 0 0 0 12.333 10h-.758V4.556A1.54 1.54 0 0 0 10.061 3H5.515A1.54 1.54 0 0 0 4 4.556V17h7.576v-5.833h1.136v3.889a1.895 1.895 0 1 0 3.788 0V7.667a1.973 1.973 0 0 0-.553-1.377zm-5.886 2.154H5.515V4.556h4.545zm4.545 0a.778.778 0 1 1 .758-.778.77.77 0 0 1-.758.778z"/>
</svg>
