<svg xmlns="http://www.w3.org/2000/svg" width="26" height="26" viewBox="0 0 26 26">
    <g transform="translate(13778 -12808)">
        <rect width="26" height="26" transform="translate(-13778 12808)" fill="none"/>
        <path class="fillColor" d="M2.845,14.129a8.811,8.811,0,0,1-4.9-5.794c-.062-.237-.144-.6-.179-.8A12.324,12.324,0,0,1-2.3,5.156a8.731,8.731,0,0,1,.853-2.922A8.829,8.829,0,0,1,5.543-2.633a13.16,13.16,0,0,1,2.212.054,8.708,8.708,0,0,1,4.994,2.6,8.583,8.583,0,0,1,2.224,4.028,7.9,7.9,0,0,1,.221,2.3,7.091,7.091,0,0,1-.264,1.991,8.872,8.872,0,0,1-4.888,5.792L6.419,18.113ZM.323,4.015A5.2,5.2,0,0,0,.017,6.076,5.145,5.145,0,0,0,.1,7.338,6.515,6.515,0,0,0,2.283,11a6.417,6.417,0,0,0,6.97.873,6.506,6.506,0,0,0,3.516-4.548,4.942,4.942,0,0,0,.085-1.25A5.131,5.131,0,0,0,12.54,4,6.47,6.47,0,0,0,7.088-.343,6.142,6.142,0,0,0,6.422-.38,6.5,6.5,0,0,0,.323,4.015Zm4.2,5.933A4.338,4.338,0,0,1,5.933,1.753a5.372,5.372,0,0,1,.637-.016,4.287,4.287,0,0,1,3.784,2.48,4.322,4.322,0,0,1-3.923,6.177A4.272,4.272,0,0,1,4.52,9.948Z" transform="translate(-13771.672 12813.657)" fill="#8c8b96"/>
    </g>
</svg>