<svg xmlns="http://www.w3.org/2000/svg" xmlns:xlink="http://www.w3.org/1999/xlink" width="19.555" height="16.853" viewBox="0 0 19.555 16.853">
  <defs>
    <clipPath id="clip-path">
      <path id="Union_4" data-name="Union 4" d="M2.239,17.8V13.673l.014-.679.024-.742c-.25.25-.425.415-.522.493L.935,13.4.208,12.5l2.3-1.832h1.24V17.8ZM.606,7.371A4.9,4.9,0,0,1-.022,4.632a5.022,5.022,0,0,1,.61-2.785,2.116,2.116,0,0,1,1.88-.9,2.107,2.107,0,0,1,1.868.938,4.918,4.918,0,0,1,.632,2.744A4.985,4.985,0,0,1,4.356,7.4a2.127,2.127,0,0,1-1.887.9A2.1,2.1,0,0,1,.606,7.371Zm1.1-4.626a5.545,5.545,0,0,0-.23,1.887A5.527,5.527,0,0,0,1.7,6.514a.785.785,0,0,0,.764.569.794.794,0,0,0,.761-.576,5.393,5.393,0,0,0,.234-1.875,5.373,5.373,0,0,0-.237-1.887.791.791,0,0,0-1.521,0Z" transform="translate(0 0)" fill="#363545"/>
    </clipPath>
  </defs>
  <g id="Group_7633" data-name="Group 7633" transform="translate(5900 4197.75)">
    <g id="Rectangle_3496" data-name="Rectangle 3496" transform="translate(-5889.281 -4196.314)" fill="#fff" stroke="#363545" stroke-width="1">
      <rect width="8.835" height="14.137" rx="2" stroke="none"/>
      <rect x="0.5" y="0.5" width="7.835" height="13.137" rx="1.5" fill="none"/>
    </g>
    <g id="Rectangle_3497" data-name="Rectangle 3497" transform="translate(-5900 -4196.314)" fill="none" stroke="#363545" stroke-width="1">
      <rect width="8.84" height="14.144" rx="2" stroke="none"/>
      <rect x="0.5" y="0.5" width="7.84" height="13.144" rx="1.5" fill="none"/>
    </g>
    <g id="Mask_Group_163" data-name="Mask Group 163" transform="translate(-5887.131 -4198.701)" clip-path="url(#clip-path)">
      <rect id="Rectangle_3498" data-name="Rectangle 3498" width="8.835" height="14.137" transform="translate(-2.15 2.386)" fill="#363545"/>
    </g>
    <text id="_0" data-name="0" transform="translate(-5898.233 -4185.198)" fill="#363545" font-size="10" font-family="OpenSans-Bold, Open Sans" font-weight="700"><tspan x="0" y="0">0</tspan></text>
  </g>
</svg>
