<svg id="speed_black_24dp" xmlns="http://www.w3.org/2000/svg" width="20" height="20" viewBox="0 0 20 20">
  <path id="Path_6317" data-name="Path 6317" d="M0,0H20V20H0Z" fill="none"/>
  <path id="Path_6318" data-name="Path 6318" d="M17.622,8,16.576,9.616a7.169,7.169,0,0,1-.187,6.625H4.613a7.147,7.147,0,0,1,.943-8.288A6.661,6.661,0,0,1,13.543,6.5l1.572-1.075A8.316,8.316,0,0,0,4.676,6.442,8.925,8.925,0,0,0,3.152,17.115a1.692,1.692,0,0,0,1.461.874H16.381a1.691,1.691,0,0,0,1.478-.874A8.954,8.954,0,0,0,17.63,7.99ZM9.3,13.978a1.666,1.666,0,0,0,2.4,0l4.809-7.421L9.3,11.5a1.784,1.784,0,0,0,0,2.474Z" transform="translate(-0.503 -0.999)" fill="#363545"/>
</svg>
