<svg xmlns="http://www.w3.org/2000/svg" width="26.104" height="26.104" viewBox="0 0 26.104 26.104">
  <g id="Group_7661" data-name="Group 7661" transform="translate(2097.254 -11994.172)">
    <g id="Group_2073" data-name="Group 2073" transform="translate(-2097.254 11994.172)">
      <g id="local_shipping-24px" transform="translate(0 0)">
        <path id="Path_51" data-name="Path 51" d="M0,0H26.1V26.1H0Z" fill="none"/>
        <path id="Path_52" data-name="Path 52" d="M21.434,8.083H18.207V4H3.151A2.1,2.1,0,0,0,1,6.041V17.27H3.151a3.143,3.143,0,0,0,3.226,3.062A3.143,3.143,0,0,0,9.6,17.27h6.453a3.231,3.231,0,0,0,6.453,0H24.66v-5.1ZM6.377,18.8a1.533,1.533,0,1,1,0-3.062,1.533,1.533,0,1,1,0,3.062ZM20.9,9.614,23,12.166h-4.8V9.614ZM19.283,18.8A1.533,1.533,0,1,1,20.9,17.27,1.572,1.572,0,0,1,19.283,18.8Z" transform="translate(0.221 0.886)" fill="#8c8b96" class="fillColor"/>
      </g>
    </g>
  </g>
</svg>
